<svg width="657.9px" height="121.6px" xmlns="http://www.w3.org/2000/svg" viewBox="-78.96251220703124 14.199996948242188 657.9250244140625 121.60000610351562" style="background: rgba(0, 0, 0, 0)" preserveAspectRatio="xMidYMid"><defs><linearGradient id="editing-gradow-gradient" x1="0" x2="1" y1="0.5" y2="0.5" gradientUnits="objectBoundingBox"><stop offset="0" stop-color="#ff00ff"></stop><stop offset="1" stop-color="#00ffff"></stop></linearGradient><filter id="editing-gradow-filter" x="-100%" y="-100%" width="300%" height="300%"><feFlood flood-color="#fffcd9" result="flood"></feFlood><feComposite operator="in" in2="SourceAlpha" in="flood" result="shadow"></feComposite><feOffset dx="-4" dy="-4" in="SourceGraphic" result="offset-1"></feOffset><feOffset dx="4" dy="4" in="shadow" result="offset-2"></feOffset><feMerge><feMergeNode in="offset-2"></feMergeNode><feMergeNode in="offset-1"></feMergeNode></feMerge></filter></defs><g filter="url(#editing-gradow-filter)"><g transform="matrix(1.4,0,0,1.6,-55.9,199)"><path d="M 7.8 -62.5 L -6.2 -62.5 L 1.9 -104.7 L 16 -104.7 L 7.8 -62.5 Z M 63.5 -61.2 L 63.5 -61.2 L 63.5 -61.2 Q 55.8 -61.2 55.8 -67.2 L 55.8 -67.2 L 55.8 -67.2 Q 55.8 -69.8 56.9 -74.9 L 56.9 -74.9 L 56.9 -74.9 Q 58 -80 58.4 -82.1 L 58.4 -82.1 L 58.4 -82.1 Q 59.3 -86.7 59.3 -88.2 L 59.3 -88.2 L 59.3 -88.2 Q 59.3 -91.5 56.9 -91.5 L 56.9 -91.5 L 56.9 -91.5 Q 55.3 -91.5 53.7 -89.3 L 53.7 -89.3 L 53.7 -89.3 Q 52.2 -87.1 51.5 -82.6 L 51.5 -82.6 L 47.5 -62.5 L 35 -61.2 L 38.5 -78.6 L 38.5 -78.6 Q 39.1 -81.5 39.6 -84.7 L 39.6 -84.7 L 39.6 -84.7 Q 40.1 -88 40.1 -88.5 L 40.1 -88.5 L 40.1 -88.5 Q 40.1 -91.5 37.9 -91.5 L 37.9 -91.5 L 37.9 -91.5 Q 36.4 -91.5 34.8 -89.3 L 34.8 -89.3 L 34.8 -89.3 Q 33.2 -87.1 32.3 -82.6 L 32.3 -82.6 L 28.4 -62.5 L 15.8 -61.2 L 22.6 -95.1 L 33 -96.4 L 31.9 -89.9 L 31.9 -89.9 Q 33.6 -93.4 36.6 -94.9 L 36.6 -94.9 L 36.6 -94.9 Q 39.7 -96.4 44.5 -96.4 L 44.5 -96.4 L 44.5 -96.4 Q 47.3 -96.4 49.1 -95.1 L 49.1 -95.1 L 49.1 -95.1 Q 50.8 -93.7 51.4 -91.5 L 51.4 -91.5 L 51.4 -91.5 Q 52.5 -93.8 55.3 -95.1 L 55.3 -95.1 L 55.3 -95.1 Q 58.1 -96.4 61.5 -96.4 L 61.5 -96.4 L 61.5 -96.4 Q 64.9 -96.4 66.6 -95.7 L 66.6 -95.7 L 66.6 -95.7 Q 68.3 -94.9 69.3 -93.7 L 69.3 -93.7 L 69.3 -93.7 Q 71.1 -91.5 71.1 -87.4 L 71.1 -87.4 L 71.1 -87.4 Q 71.1 -83.3 69.3 -75 L 69.3 -75 L 69.3 -75 Q 68.4 -70.9 68.4 -69.4 L 68.4 -69.4 L 68.4 -69.4 Q 68.4 -67.9 69.3 -67 L 69.3 -67 L 69.3 -67 Q 70.2 -66.1 71.5 -65.9 L 71.5 -65.9 L 71.5 -65.9 Q 70.8 -63.8 68.6 -62.5 L 68.6 -62.5 L 68.6 -62.5 Q 66.4 -61.2 63.5 -61.2 Z M 79.2 -64.4 L 79.2 -64.4 L 79.2 -64.4 Q 77.7 -66.1 77 -68.7 L 77 -68.7 L 77 -68.7 Q 76.3 -71.3 76.3 -75.6 L 76.3 -75.6 L 76.3 -75.6 Q 76.3 -79.9 77.8 -83.8 L 77.8 -83.8 L 77.8 -83.8 Q 79.3 -87.7 81.9 -90.5 L 81.9 -90.5 L 81.9 -90.5 Q 87.5 -96.4 96.5 -96.4 L 96.5 -96.4 L 96.5 -96.4 Q 99.8 -96.4 102.2 -95.3 L 102.2 -95.3 L 113.1 -96.4 L 108.4 -71.4 L 108.4 -71.4 Q 108.2 -70.7 108.2 -69.3 L 108.2 -69.3 L 108.2 -69.3 Q 108.2 -67.9 109.1 -67 L 109.1 -67 L 109.1 -67 Q 109.9 -66.1 111.2 -65.9 L 111.2 -65.9 L 111.2 -65.9 Q 110.6 -63.8 108.2 -62.5 L 108.2 -62.5 L 108.2 -62.5 Q 105.9 -61.2 103.3 -61.2 L 103.3 -61.2 L 103.3 -61.2 Q 100.6 -61.2 98.9 -62.2 L 98.9 -62.2 L 98.9 -62.2 Q 97.1 -63.2 96.6 -64.8 L 96.6 -64.8 L 96.6 -64.8 Q 95.6 -63.2 93.4 -62.2 L 93.4 -62.2 L 93.4 -62.2 Q 91.2 -61.2 88.3 -61.2 L 88.3 -61.2 L 88.3 -61.2 Q 85.4 -61.2 83 -62 L 83 -62 L 83 -62 Q 80.7 -62.7 79.2 -64.4 Z M 92.7 -90.4 L 92.7 -90.4 L 92.7 -90.4 Q 91.9 -89.2 91.3 -87.3 L 91.3 -87.3 L 91.3 -87.3 Q 90.7 -85.3 89.6 -80.1 L 89.6 -80.1 L 89.6 -80.1 Q 88.5 -74.9 88.5 -71.2 L 88.5 -71.2 L 88.5 -71.2 Q 88.5 -67.5 89.1 -66.4 L 89.1 -66.4 L 89.1 -66.4 Q 89.7 -65.3 90.7 -65.3 L 90.7 -65.3 L 90.7 -65.3 Q 92.8 -65.3 94.3 -67.2 L 94.3 -67.2 L 94.3 -67.2 Q 95.8 -69.2 96.3 -72.7 L 96.3 -72.7 L 99.7 -91.4 L 99.7 -91.4 Q 98.4 -92.6 96.8 -92.6 L 96.8 -92.6 L 96.8 -92.6 Q 95.3 -92.6 94.3 -92 L 94.3 -92 L 94.3 -92 Q 93.4 -91.5 92.7 -90.4 Z M 120.9 -89.2 L 120.9 -89.2 L 120.9 -89.2 Q 123 -92.3 126.3 -94.3 L 126.3 -94.3 L 126.3 -94.3 Q 129.6 -96.4 133.7 -96.4 L 133.7 -96.4 L 133.7 -96.4 Q 137.7 -96.4 139.6 -95.1 L 139.6 -95.1 L 152.2 -96.4 L 147.8 -71.8 L 147.8 -71.8 Q 145.6 -59.3 140.8 -54.3 L 140.8 -54.3 L 140.8 -54.3 Q 136.3 -49.7 127.5 -49.7 L 127.5 -49.7 L 127.5 -49.7 Q 120.7 -49.7 116.9 -51.8 L 116.9 -51.8 L 116.9 -51.8 Q 113.1 -53.9 113.1 -57.4 L 113.1 -57.4 L 113.1 -57.4 Q 113.1 -60 115 -61.5 L 115 -61.5 L 115 -61.5 Q 117 -63.1 120.1 -63.1 L 120.1 -63.1 L 120.1 -63.1 Q 122.8 -63.1 124.8 -61.8 L 124.8 -61.8 L 124.8 -61.8 Q 126 -61.2 126.6 -60.3 L 126.6 -60.3 L 126.6 -60.3 Q 125.1 -59 125.1 -56.9 L 125.1 -56.9 L 125.1 -56.9 Q 125.1 -54.2 127.7 -54.2 L 127.7 -54.2 L 127.7 -54.2 Q 132 -54.2 134.4 -64.3 L 134.4 -64.3 L 134.4 -64.3 Q 135.1 -67 135.7 -69.8 L 135.7 -69.8 L 135.7 -69.8 Q 132.8 -66.3 126.3 -66.3 L 126.3 -66.3 L 126.3 -66.3 Q 121.8 -66.3 119.1 -68.4 L 119.1 -68.4 L 119.1 -68.4 Q 116.5 -70.6 116.5 -75.7 L 116.5 -75.7 L 116.5 -75.7 Q 116.5 -78.9 117.6 -82.5 L 117.6 -82.5 L 117.6 -82.5 Q 118.7 -86.2 120.9 -89.2 Z M 129.2 -75.5 L 129.2 -75.5 L 129.2 -75.5 Q 129.2 -71.2 131.4 -71.2 L 131.4 -71.2 L 131.4 -71.2 Q 133 -71.2 134.4 -72.8 L 134.4 -72.8 L 134.4 -72.8 Q 135.6 -74.2 136 -76.2 L 136 -76.2 L 139.3 -92.6 L 139.3 -92.6 Q 139 -92.7 138.7 -92.8 L 138.7 -92.8 L 138.7 -92.8 Q 138 -93.1 137.2 -93.1 L 137.2 -93.1 L 137.2 -93.1 Q 133.3 -93.1 131 -86.7 L 131 -86.7 L 131 -86.7 Q 129.2 -81.7 129.2 -75.5 Z M 180.6 -73.3 L 180.6 -73.3 L 180.6 -73.3 Q 182.2 -72.2 182.2 -69.8 L 182.2 -69.8 L 182.2 -69.8 Q 182.2 -67.4 181 -65.9 L 181 -65.9 L 181 -65.9 Q 179.7 -64.3 177.8 -63.3 L 177.8 -63.3 L 177.8 -63.3 Q 173.7 -61.2 169.2 -61.2 L 169.2 -61.2 L 169.2 -61.2 Q 164.8 -61.2 162.2 -62.2 L 162.2 -62.2 L 162.2 -62.2 Q 159.6 -63.1 157.9 -64.9 L 157.9 -64.9 L 157.9 -64.9 Q 154.5 -68.3 154.5 -74.5 L 154.5 -74.5 L 154.5 -74.5 Q 154.5 -84.2 159.8 -90.1 L 159.8 -90.1 L 159.8 -90.1 Q 165.4 -96.4 175.2 -96.4 L 175.2 -96.4 L 175.2 -96.4 Q 181.3 -96.4 184.3 -93.8 L 184.3 -93.8 L 184.3 -93.8 Q 186.5 -91.9 186.5 -88.8 L 186.5 -88.8 L 186.5 -88.8 Q 186.5 -77.5 167.1 -77.5 L 167.1 -77.5 L 167.1 -77.5 Q 166.8 -75.9 166.8 -74.4 L 166.8 -74.4 L 166.8 -74.4 Q 166.8 -71.5 168.1 -70.4 L 168.1 -70.4 L 168.1 -70.4 Q 169.4 -69.3 171.9 -69.3 L 171.9 -69.3 L 171.9 -69.3 Q 174.3 -69.3 176.9 -70.4 L 176.9 -70.4 L 176.9 -70.4 Q 179.5 -71.5 180.6 -73.3 Z M 167.5 -80.3 L 167.5 -80.3 L 167.5 -80.3 Q 172.1 -80.3 174.7 -83.1 L 174.7 -83.1 L 174.7 -83.1 Q 177.3 -85.8 177.3 -90.1 L 177.3 -90.1 L 177.3 -90.1 Q 177.3 -91.5 176.8 -92.3 L 176.8 -92.3 L 176.8 -92.3 Q 176.2 -93.1 175.1 -93.1 L 175.1 -93.1 L 175.1 -93.1 Q 174 -93.1 173.1 -92.7 L 173.1 -92.7 L 173.1 -92.7 Q 172.2 -92.3 171.2 -90.9 L 171.2 -90.9 L 171.2 -90.9 Q 168.9 -87.7 167.5 -80.3 Z M 207.8 -84.9 L 207.8 -84.9 L 207.8 -84.9 Q 208.7 -87.3 208.7 -89.4 L 208.7 -89.4 L 208.7 -89.4 Q 208.7 -93.1 205.7 -93.1 L 205.7 -93.1 L 205.7 -93.1 Q 204.1 -93.1 202.7 -91.7 L 202.7 -91.7 L 202.7 -91.7 Q 201.4 -90.3 201.4 -88.5 L 201.4 -88.5 L 201.4 -88.5 Q 201.4 -87.2 202.5 -86.2 L 202.5 -86.2 L 202.5 -86.2 Q 203.9 -84.7 207.7 -82.4 L 207.7 -82.4 L 207.7 -82.4 Q 211.5 -80.1 212.9 -78.3 L 212.9 -78.3 L 212.9 -78.3 Q 214.4 -76.4 214.4 -73.8 L 214.4 -73.8 L 214.4 -73.8 Q 214.4 -71.2 213.1 -68.8 L 213.1 -68.8 L 213.1 -68.8 Q 211.9 -66.4 209.6 -64.8 L 209.6 -64.8 L 209.6 -64.8 Q 204.8 -61.2 197.1 -61.2 L 197.1 -61.2 L 197.1 -61.2 Q 193 -61.2 189.8 -63.4 L 189.8 -63.4 L 189.8 -63.4 Q 186.6 -65.5 186.6 -68 L 186.6 -68 L 186.6 -68 Q 186.6 -70.5 188.4 -71.9 L 188.4 -71.9 L 188.4 -71.9 Q 190.2 -73.4 192.9 -73.4 L 192.9 -73.4 L 192.9 -73.4 Q 195.6 -73.4 197.3 -72.4 L 197.3 -72.4 L 197.3 -72.4 Q 196.4 -70.3 196.4 -68.9 L 196.4 -68.9 L 196.4 -68.9 Q 196.4 -64.7 200 -64.7 L 200 -64.7 L 200 -64.7 Q 201.6 -64.7 202.6 -65.6 L 202.6 -65.6 L 202.6 -65.6 Q 203.6 -66.6 203.6 -68.2 L 203.6 -68.2 L 203.6 -68.2 Q 203.6 -71.5 198.1 -75 L 198.1 -75 L 198.1 -75 Q 193.6 -77.9 192.6 -79.1 L 192.6 -79.1 L 192.6 -79.1 Q 190.9 -81.1 190.9 -83.7 L 190.9 -83.7 L 190.9 -83.7 Q 190.9 -86.2 192.1 -88.7 L 192.1 -88.7 L 192.1 -88.7 Q 193.3 -91.1 195.5 -92.8 L 195.5 -92.8 L 195.5 -92.8 Q 200.2 -96.4 208.3 -96.4 L 208.3 -96.4 L 208.3 -96.4 Q 212.5 -96.4 215 -94.7 L 215 -94.7 L 215 -94.7 Q 217.4 -93.1 217.4 -90.3 L 217.4 -90.3 L 217.4 -90.3 Q 217.4 -87.4 215.7 -85.8 L 215.7 -85.8 L 215.7 -85.8 Q 214 -84.2 211 -84.2 L 211 -84.2 L 211 -84.2 Q 208.9 -84.2 207.8 -84.9 Z M 258.9 -83.1 L 271.8 -84.2 L 271.8 -84.2 Q 267.2 -74.1 267.2 -62.4 L 267.2 -62.4 L 267.2 -62.4 Q 265.5 -61.2 263 -61.2 L 263 -61.2 L 263 -61.2 Q 260.4 -61.2 258.8 -62.4 L 258.8 -62.4 L 258.8 -62.4 Q 257.2 -63.6 256.9 -64.8 L 256.9 -64.8 L 256.9 -64.8 Q 255.3 -63.1 252.7 -62.2 L 252.7 -62.2 L 252.7 -62.2 Q 250.1 -61.2 247.4 -61.2 L 247.4 -61.2 L 247.4 -61.2 Q 244.6 -61.2 242.2 -62.1 L 242.2 -62.1 L 242.2 -62.1 Q 239.8 -63 238 -65 L 238 -65 L 238 -65 Q 233.9 -69.3 233.9 -77.6 L 233.9 -77.6 L 233.9 -77.6 Q 233.9 -90.4 240.7 -98.1 L 240.7 -98.1 L 240.7 -98.1 Q 247.8 -106 260.3 -106 L 260.3 -106 L 260.3 -106 Q 268.9 -106 272 -101.5 L 272 -101.5 L 272 -101.5 Q 272.9 -100.1 272.9 -98.4 L 272.9 -98.4 L 272.9 -98.4 Q 272.9 -96.7 272.2 -95.3 L 272.2 -95.3 L 272.2 -95.3 Q 271.5 -93.8 270.3 -92.7 L 270.3 -92.7 L 270.3 -92.7 Q 267.5 -90.1 264.2 -90.1 L 264.2 -90.1 L 264.2 -90.1 Q 262.8 -90.1 261.5 -90.6 L 261.5 -90.6 L 261.5 -90.6 Q 261.8 -92.5 261.8 -94.7 L 261.8 -94.7 L 261.8 -94.7 Q 261.8 -97 261.6 -98 L 261.6 -98 L 261.6 -98 Q 261.5 -99 261.1 -99.9 L 261.1 -99.9 L 261.1 -99.9 Q 260.3 -101.6 258.4 -101.6 L 258.4 -101.6 L 258.4 -101.6 Q 256.6 -101.6 254.6 -99.6 L 254.6 -99.6 L 254.6 -99.6 Q 252.6 -97.7 251 -94.5 L 251 -94.5 L 251 -94.5 Q 247.5 -87.3 247.5 -78.7 L 247.5 -78.7 L 247.5 -78.7 Q 247.5 -74.7 249 -71.9 L 249 -71.9 L 249 -71.9 Q 250.7 -68.8 253.6 -68.8 L 253.6 -68.8 L 253.6 -68.8 Q 254.6 -68.8 255.5 -69.3 L 255.5 -69.3 L 255.5 -69.3 Q 256.5 -69.8 256.9 -70.2 L 256.9 -70.2 L 258.9 -83.1 Z M 277.8 -64.4 L 277.8 -64.4 L 277.8 -64.4 Q 276.3 -66.1 275.6 -68.7 L 275.6 -68.7 L 275.6 -68.7 Q 274.9 -71.3 274.9 -75.6 L 274.9 -75.6 L 274.9 -75.6 Q 274.9 -79.9 276.4 -83.8 L 276.4 -83.8 L 276.4 -83.8 Q 277.9 -87.7 280.5 -90.5 L 280.5 -90.5 L 280.5 -90.5 Q 286 -96.4 295.1 -96.4 L 295.1 -96.4 L 295.1 -96.4 Q 298.4 -96.4 300.8 -95.3 L 300.8 -95.3 L 311.7 -96.4 L 307 -71.4 L 307 -71.4 Q 306.8 -70.7 306.8 -69.3 L 306.8 -69.3 L 306.8 -69.3 Q 306.8 -67.9 307.6 -67 L 307.6 -67 L 307.6 -67 Q 308.5 -66.1 309.8 -65.9 L 309.8 -65.9 L 309.8 -65.9 Q 309.1 -63.8 306.8 -62.5 L 306.8 -62.5 L 306.8 -62.5 Q 304.5 -61.2 301.9 -61.2 L 301.9 -61.2 L 301.9 -61.2 Q 299.2 -61.2 297.5 -62.2 L 297.5 -62.2 L 297.5 -62.2 Q 295.7 -63.2 295.2 -64.8 L 295.2 -64.8 L 295.2 -64.8 Q 294.2 -63.2 292 -62.2 L 292 -62.2 L 292 -62.2 Q 289.8 -61.2 286.9 -61.2 L 286.9 -61.2 L 286.9 -61.2 Q 284 -61.2 281.6 -62 L 281.6 -62 L 281.6 -62 Q 279.3 -62.7 277.8 -64.4 Z M 291.3 -90.4 L 291.3 -90.4 L 291.3 -90.4 Q 290.5 -89.2 289.9 -87.3 L 289.9 -87.3 L 289.9 -87.3 Q 289.2 -85.3 288.2 -80.1 L 288.2 -80.1 L 288.2 -80.1 Q 287.1 -74.9 287.1 -71.2 L 287.1 -71.2 L 287.1 -71.2 Q 287.1 -67.5 287.7 -66.4 L 287.7 -66.4 L 287.7 -66.4 Q 288.3 -65.3 289.3 -65.3 L 289.3 -65.3 L 289.3 -65.3 Q 291.4 -65.3 292.9 -67.2 L 292.9 -67.2 L 292.9 -67.2 Q 294.4 -69.2 294.9 -72.7 L 294.9 -72.7 L 298.3 -91.4 L 298.3 -91.4 Q 297 -92.6 295.4 -92.6 L 295.4 -92.6 L 295.4 -92.6 Q 293.9 -92.6 292.9 -92 L 292.9 -92 L 292.9 -92 Q 292 -91.5 291.3 -90.4 Z M 330.5 -66 L 330.5 -66 L 330.5 -66 Q 328.5 -61.2 322.1 -61.2 L 322.1 -61.2 L 322.1 -61.2 Q 318.9 -61.2 316.9 -63.4 L 316.9 -63.4 L 316.9 -63.4 Q 315.2 -65.3 315.2 -67.4 L 315.2 -67.4 L 315.2 -67.4 Q 315.2 -72.2 317.5 -82.7 L 317.5 -82.7 L 322.1 -107.3 L 335.1 -108.6 L 328.9 -76.2 L 328.9 -76.2 Q 327.8 -71.4 327.8 -69.8 L 327.8 -69.8 L 327.8 -69.8 Q 327.8 -66.1 330.5 -66 Z M 351.2 -66 L 351.2 -66 L 351.2 -66 Q 349.2 -61.2 342.9 -61.2 L 342.9 -61.2 L 342.9 -61.2 Q 339.7 -61.2 337.6 -63.4 L 337.6 -63.4 L 337.6 -63.4 Q 336 -65.3 336 -67.4 L 336 -67.4 L 336 -67.4 Q 336 -72.2 338.2 -82.7 L 338.2 -82.7 L 342.9 -107.3 L 355.9 -108.6 L 349.7 -76.2 L 349.7 -76.2 Q 348.6 -71.4 348.6 -69.8 L 348.6 -69.8 L 348.6 -69.8 Q 348.6 -66.1 351.2 -66 Z M 382.6 -73.3 L 382.6 -73.3 L 382.6 -73.3 Q 384.2 -72.2 384.2 -69.8 L 384.2 -69.8 L 384.2 -69.8 Q 384.2 -67.4 382.9 -65.9 L 382.9 -65.9 L 382.9 -65.9 Q 381.7 -64.3 379.7 -63.3 L 379.7 -63.3 L 379.7 -63.3 Q 375.6 -61.2 371.2 -61.2 L 371.2 -61.2 L 371.2 -61.2 Q 366.8 -61.2 364.2 -62.2 L 364.2 -62.2 L 364.2 -62.2 Q 361.6 -63.1 359.9 -64.9 L 359.9 -64.9 L 359.9 -64.9 Q 356.5 -68.3 356.5 -74.5 L 356.5 -74.5 L 356.5 -74.5 Q 356.5 -84.2 361.8 -90.1 L 361.8 -90.1 L 361.8 -90.1 Q 367.4 -96.4 377.2 -96.4 L 377.2 -96.4 L 377.2 -96.4 Q 383.3 -96.4 386.3 -93.8 L 386.3 -93.8 L 386.3 -93.8 Q 388.5 -91.9 388.5 -88.8 L 388.5 -88.8 L 388.5 -88.8 Q 388.5 -77.5 369.1 -77.5 L 369.1 -77.5 L 369.1 -77.5 Q 368.8 -75.9 368.8 -74.4 L 368.8 -74.4 L 368.8 -74.4 Q 368.8 -71.5 370.1 -70.4 L 370.1 -70.4 L 370.1 -70.4 Q 371.4 -69.3 373.9 -69.3 L 373.9 -69.3 L 373.9 -69.3 Q 376.3 -69.3 378.9 -70.4 L 378.9 -70.4 L 378.9 -70.4 Q 381.5 -71.5 382.6 -73.3 Z M 369.5 -80.3 L 369.5 -80.3 L 369.5 -80.3 Q 374 -80.3 376.7 -83.1 L 376.7 -83.1 L 376.7 -83.1 Q 379.3 -85.8 379.3 -90.1 L 379.3 -90.1 L 379.3 -90.1 Q 379.3 -91.5 378.7 -92.3 L 378.7 -92.3 L 378.7 -92.3 Q 378.2 -93.1 377.1 -93.1 L 377.1 -93.1 L 377.1 -93.1 Q 376 -93.1 375.1 -92.7 L 375.1 -92.7 L 375.1 -92.7 Q 374.2 -92.3 373.2 -90.9 L 373.2 -90.9 L 373.2 -90.9 Q 370.8 -87.7 369.5 -80.3 Z M 410.7 -80.5 L 410.7 -80.5 L 410.7 -80.5 Q 413 -84.6 413 -88.7 L 413 -88.7 L 413 -88.7 Q 413 -91.5 411 -91.5 L 411 -91.5 L 411 -91.5 Q 409.5 -91.5 407.9 -88.8 L 407.9 -88.8 L 407.9 -88.8 Q 406.2 -86.2 405.7 -82.8 L 405.7 -82.8 L 402.4 -62.5 L 389.1 -61.2 L 395.7 -95.1 L 406.2 -96.4 L 405.1 -89.9 L 405.1 -89.9 Q 408.2 -96.4 415.3 -96.4 L 415.3 -96.4 L 415.3 -96.4 Q 419 -96.4 421 -94.5 L 421 -94.5 L 421 -94.5 Q 423 -92.6 423 -88.6 L 423 -88.6 L 423 -88.6 Q 423 -84.7 420.4 -82.2 L 420.4 -82.2 L 420.4 -82.2 Q 417.8 -79.7 413.4 -79.7 L 413.4 -79.7 L 413.4 -79.7 Q 411.5 -79.7 410.7 -80.5 Z M 444.4 -69.7 L 444.4 -69.7 L 444.4 -69.7 Q 441.1 -66.3 435 -66.3 L 435 -66.3 L 435 -66.3 Q 427.4 -66.3 425.8 -71.8 L 425.8 -71.8 L 425.8 -71.8 Q 425.2 -73.5 425.2 -75.3 L 425.2 -75.3 L 425.2 -75.3 Q 425.2 -77.2 425.6 -79.1 L 425.6 -79.1 L 428.6 -95.1 L 441.6 -96.4 L 438.1 -77.8 L 438.1 -77.8 Q 438 -76.9 437.8 -76 L 437.8 -76 L 437.8 -76 Q 437.6 -75.1 437.6 -74.2 L 437.6 -74.2 L 437.6 -74.2 Q 437.6 -73.3 437.9 -72.7 L 437.9 -72.7 L 437.9 -72.7 Q 438.2 -72.1 438.7 -71.7 L 438.7 -71.7 L 438.7 -71.7 Q 439.5 -71.2 440.8 -71.2 L 440.8 -71.2 L 440.8 -71.2 Q 442.2 -71.2 443.4 -72.8 L 443.4 -72.8 L 443.4 -72.8 Q 444.6 -74.5 445.1 -77.4 L 445.1 -77.4 L 448.7 -95.1 L 461.3 -96.4 L 456.5 -71.2 L 456.5 -71.2 Q 454.1 -59 449.2 -54.1 L 449.2 -54.1 L 449.2 -54.1 Q 446.7 -51.6 443.5 -50.6 L 443.5 -50.6 L 443.5 -50.6 Q 440.3 -49.6 436.1 -49.6 L 436.1 -49.6 L 436.1 -49.6 Q 429.4 -49.6 425.6 -51.7 L 425.6 -51.7 L 425.6 -51.7 Q 421.7 -53.8 421.7 -57.4 L 421.7 -57.4 L 421.7 -57.4 Q 421.7 -60 423.7 -61.5 L 423.7 -61.5 L 423.7 -61.5 Q 425.7 -63 428.8 -63 L 428.8 -63 L 428.8 -63 Q 431.5 -63 433.5 -61.8 L 433.5 -61.8 L 433.5 -61.8 Q 434.7 -61.1 435.3 -60.2 L 435.3 -60.2 L 435.3 -60.2 Q 433.8 -59 433.8 -56.8 L 433.8 -56.8 L 433.8 -56.8 Q 433.8 -54 436.4 -54 L 436.4 -54 L 436.4 -54 Q 440.6 -54 443 -63.8 L 443 -63.8 L 443 -63.8 Q 443.7 -66.6 444.4 -69.7 Z" fill="url(#editing-gradow-gradient)"></path></g></g><style>text {
  font-size: 64px;
  font-family: Arial Black;
  dominant-baseline: central;
  text-anchor: middle;
}</style></svg>